<svg xmlns="http://www.w3.org/2000/svg" viewBox="0 0 219.44 156.57"><defs><style>.cls-1{fill:#fff}</style></defs><g id="Layer_2" data-name="Layer 2"><g id="Layer_1-2" data-name="Layer 1"><path class="cls-1" d="M214.21 51.91h-34.68s-4.24.3-4.24 4.24v50.77a1.82 1.82 0 0 1-1.86 1.86h-4.8s-2 .29-2-2V73.93s0-4-4-4H56.8c-4 0-4 4-4 4v32.89c0 2.25-2 2-2 2H46a1.82 1.82 0 0 1-1.86-1.86V56.15c0-3.94-4.23-4.24-4.23-4.24H5.23C.29 51.91 0 57.14 0 57.14v49c0 5.49 4.86 4.86 4.86 4.86h34.76a1.82 1.82 0 0 1 2.06 2.07V152c0 5.89 4.42 4.41 4.42 4.41h127.24s4.42 1.48 4.42-4.41v-38.89a1.81 1.81 0 0 1 2.06-2.07h34.76s4.86.59 4.86-4.86v-49s-.3-5.23-5.23-5.23"/><rect class="cls-1" x="52.77" width="44.18" height="60.09" rx="3.98"/><rect class="cls-1" x="122.49" width="44.18" height="60.09" rx="3.98"/></g></g></svg>